<svg width="24" height="24" viewBox="0 0 70 70">
  <path fill-rule="evenodd" d="M59.158 47.432L64 52.107v.155H39.44v-.155l4.93-4.675c.526-.433.778-1.12.657-1.795V15.752l.22-4.43L28.68 52.86h-.197L11.328 14.644l-.723-1.662V38.03c-.2055 1.676.076 3.3758.811 4.896l6.902 9.172v.155H0v-.155l6.902-9.194c.73-1.512 1-3.204.8-4.874V10.346c.112-1.364-.295-2.72-1.14-3.788L1.687.155V0h17.528l14.68 32.368L46.822 0h17.156v.155l-4.82 5.428c-.578.427-.866 1.148-.745 1.86v38.194a1.78 1.78 0 0 0 .745 1.795z"/>
</svg>
