<svg xmlns="http://www.w3.org/2000/svg" width="870" height="555" stroke="#000" stroke-linecap="round" stroke-linejoin="round" fill="#fff" fill-rule="evenodd"><path d="M421.3796 361.4776L560.1827 10.2971c3.2289-8.2864 12.6046-12.401 20.9561-9.2244 3.6731 1.397 6.7663 4.0574 8.5061 7.4635l278.5149 522.9243c4.0985 7.8463 1.141 17.5493-6.7852 21.6831-2.4554 1.2248-4.9687 1.8564-7.6748 1.8564h-88.927c-48.2721 0-92.5229-26.6017-114.8318-68.992L512.2977 224.546l-70.6582 175.1116 70.175 131.8029c4.1369 7.8463 1.1599 17.5493-6.7663 21.6831-2.3197 1.2248-4.9492 1.8564-7.5397 1.8564h-88.9264c-48.2721 0-92.5229-26.6017-114.8318-68.992L139.1916 192.3366c-2.1263-4.0188-2.3976-8.8412-.7741-13.1281l65.5356-168.8729c3.2483-8.3062 12.5662-12.4395 20.9555-9.2436 3.6731 1.397 6.6701 4.0573 8.5061 7.4635l187.907 352.9414zM52.6427 395.0075c1.3522-3.6363 4.0212-6.6984 7.4807-8.5358 7.8489-4.2104 17.6695-1.3398 21.942 6.5068l75.5295 138.2904c1.2956 2.354 1.9339 4.976 1.9339 7.6553 0 8.8608-7.2306 16.0375-16.1615 16.0375H16.2018a16.314 16.314 0 0 1-5.607-.9952c-8.4094-3.0621-12.6819-12.3057-9.5881-20.6114l51.6159-138.3669z" fill-rule="nonzero" stroke="none"/></svg>